 <svg  version="1.0" xmlns="http://www.w3.org/2000/svg"  width="300.000000pt" height="156.000000pt" viewBox="0 0 300.000000 156.000000"  preserveAspectRatio="xMidYMid meet">  <g transform="translate(0.000000,156.000000) scale(0.100000,-0.100000)" fill="#73746d" stroke="none"> <path d="M240 1528 c0 -27 -43 -118 -55 -118 -3 0 -44 18 -91 40 -48 22 -89 38 -92 35 -3 -3 -3 -6 -1 -8 6 -5 142 -64 163 -71 23 -8 12 -23 -64 -82 l-54 -43 -23 21 c-13 12 -23 16 -23 10 0 -6 8 -16 17 -21 17 -10 17 -12 1 -25 -26 -19 -22 -27 7 -14 22 10 31 5 97 -45 40 -31 129 -106 197 -167 69 -60 129 -110 135 -110 12 0 12 1 -134 130 -63 56 -148 126 -188 157 l-73 55 38 29 c21 16 52 43 69 59 l30 30 71 -29 c38 -16 102 -37 141 -47 l72 -18 0 -183 0 -183 -110 -55 c-77 -38 -121 -55 -149 -55 -38 0 -39 1 -92 93 -76 131 -129 212 -129 196 0 -8 7 -24 15 -37 28 -38 145 -234 145 -241 0 -3 -36 -5 -80 -3 -54 3 -80 1 -80 -7 0 -10 136 -17 210 -11 36 3 27 -3 -98 -64 -62 -31 -112 -60 -112 -64 0 -5 42 13 93 39 50 27 95 49 99 49 7 0 71 -111 66 -114 -2 -1 -60 -38 -131 -81 -70 -43 -127 -82 -127 -88 0 -5 10 -3 23 5 12 8 73 46 136 84 106 64 115 68 125 50 6 -10 50 -81 98 -157 l87 -139 -232 -3 -232 -3 241 1 c235 0 240 0 236 -20 -2 -13 -39 -41 -104 -80 -100 -58 -222 -143 -289 -199 -58 -49 -3 -20 77 41 43 32 129 90 193 130 l116 71 5 -136 6 -137 2 163 c2 159 2 162 24 162 21 0 21 0 2 -15 -10 -8 -14 -15 -8 -15 5 0 19 7 30 15 12 9 44 14 91 15 l73 0 3 -157 3 -158 1 163 c1 90 4 166 7 169 3 4 6 23 6 44 0 37 1 38 102 93 56 31 105 56 110 56 4 0 10 -12 13 -27 4 -16 13 -56 21 -90 8 -34 14 -67 14 -72 0 -6 -52 -12 -132 -14 l-133 -3 136 -2 137 -2 9 -38 c6 -25 5 -62 -3 -112 -15 -93 -17 -170 -4 -170 6 0 10 21 10 48 0 67 11 152 20 152 4 0 11 -12 15 -27 10 -39 74 -177 80 -171 3 2 -16 52 -42 109 -46 100 -58 166 -38 199 3 5 38 10 77 10 70 0 70 0 122 -47 l52 -48 -51 -80 c-52 -80 -81 -145 -66 -145 5 0 12 12 15 26 4 15 30 63 59 107 l51 80 103 -107 c57 -59 103 -103 103 -97 0 6 -44 57 -98 113 l-99 103 34 47 35 48 222 0 223 0 -15 -77 c-11 -63 -21 -87 -56 -132 -59 -78 -82 -115 -69 -110 7 2 33 33 59 69 44 61 46 63 40 30 -4 -19 -10 -51 -12 -70 -9 -63 13 -10 26 65 12 62 20 79 74 147 83 105 90 104 186 -14 97 -120 126 -159 134 -186 4 -12 11 -20 16 -17 4 3 13 -2 20 -10 7 -8 17 -15 21 -15 5 0 -8 22 -30 50 -21 27 -51 82 -66 122 -16 40 -36 90 -47 110 l-18 38 140 0 c117 0 140 -2 140 -15 0 -91 37 -369 39 -290 0 11 -6 81 -14 155 -8 74 -15 138 -15 143 0 4 65 7 144 7 l144 0 -49 -85 c-27 -47 -49 -88 -49 -91 0 -2 -16 -36 -35 -75 -19 -39 -30 -69 -23 -67 6 2 47 74 90 159 44 84 84 155 88 157 5 2 6 11 3 20 -4 12 -3 14 4 7 6 -5 23 -80 37 -165 30 -168 34 -186 42 -178 3 3 -6 70 -20 149 -15 79 -26 149 -26 156 0 10 23 13 88 14 48 1 112 4 142 9 46 6 34 7 -67 9 -67 0 -133 -3 -146 -8 l-24 -9 -35 211 c-20 117 -35 213 -33 215 1 1 25 -3 54 -10 45 -10 56 -18 83 -57 l30 -45 -45 -91 c-25 -49 -48 -103 -52 -120 -3 -16 19 20 51 80 31 61 57 111 59 113 1 1 15 -17 31 -40 36 -53 135 -192 140 -197 2 -2 4 2 4 10 0 8 -38 68 -84 134 -82 115 -84 120 -70 146 13 27 15 27 56 15 75 -23 98 -27 98 -18 0 5 -28 15 -62 22 -78 16 -80 17 -68 38 6 9 14 29 20 45 9 24 14 27 62 29 l53 2 -47 3 c-52 4 -55 8 -34 38 18 26 76 208 76 239 0 21 -11 28 -82 56 -46 18 -126 43 -178 56 -52 13 -98 25 -102 27 -4 1 37 69 92 152 55 82 100 158 100 167 0 25 -9 22 -20 -7 -19 -50 -215 -333 -222 -322 -5 8 -8 4 -8 -8 0 -11 -11 -33 -25 -50 -21 -25 -27 -27 -34 -15 -5 8 -25 35 -45 60 -19 24 -34 46 -32 48 2 1 24 -2 49 -9 25 -6 52 -9 59 -6 7 2 -14 10 -47 16 -33 7 -65 14 -72 16 -11 4 -69 83 -75 102 -3 10 163 145 170 138 7 -7 42 -193 42 -227 0 -20 5 -40 11 -44 21 -13 -15 218 -45 291 -16 37 -32 49 -21 16 4 -15 -12 -32 -79 -81 -46 -35 -88 -62 -93 -61 -14 4 -72 114 -73 139 0 13 -6 22 -16 22 -12 0 -14 -5 -8 -17 4 -10 10 -52 12 -93 2 -41 8 -79 14 -85 6 -7 7 9 3 48 -4 31 -5 57 -2 57 3 0 17 -20 30 -45 l26 -45 -52 -34 -52 -34 -103 23 c-57 13 -105 25 -107 27 -3 2 21 46 51 97 31 51 54 95 51 97 -3 3 -31 -38 -62 -90 -44 -74 -62 -96 -79 -96 -31 0 -44 11 -51 45 -4 17 -19 56 -33 88 l-25 58 -17 -26 c-9 -13 -41 -44 -72 -68 l-56 -44 -94 24 c-51 13 -102 22 -113 20 -11 -1 16 -11 60 -21 154 -34 147 -25 57 -79 -44 -26 -84 -47 -90 -47 -5 0 -15 14 -22 30 -7 17 -25 48 -41 70 -24 33 -26 40 -13 50 7 7 14 10 14 7 0 -3 10 4 23 16 12 13 33 30 46 40 14 9 22 19 18 23 -3 4 -29 -12 -58 -35 -28 -22 -55 -41 -59 -41 -5 0 -17 17 -27 37 -11 20 -25 39 -31 41 -8 2 -7 -6 3 -24 8 -16 13 -29 11 -31 -1 -2 -49 7 -105 20 -56 12 -99 26 -95 30 4 4 3 7 -3 7 -13 0 -20 -39 -29 -162 -4 -54 -10 -98 -13 -98 -4 0 -38 37 -76 82 -92 107 -164 178 -182 178 -8 0 -11 -4 -8 -10 8 -13 -67 -340 -77 -334 -4 3 -8 15 -8 27 0 37 -64 317 -72 317 -9 0 -9 -1 26 -150 14 -58 28 -124 32 -148 l7 -43 -27 11 c-47 17 -268 71 -273 66 -6 -5 54 -23 201 -60 54 -13 103 -31 107 -38 6 -10 2 -87 -5 -94 -4 -4 -309 -164 -312 -164 -2 0 -4 106 -4 235 0 231 -13 385 -32 385 -6 0 -7 -10 -3 -22 3 -13 9 -70 12 -127 5 -92 4 -104 -10 -98 -9 3 -35 11 -59 17 -24 7 -70 22 -103 35 -33 13 -68 26 -79 29 -17 6 -17 8 -3 24 36 39 62 142 37 142 -5 0 -10 -14 -10 -32z m764 -78 c18 -25 56 -71 85 -102 l52 -57 -99 -55 -98 -55 -49 16 c-28 9 -51 17 -52 17 -1 1 12 57 28 126 17 69 33 142 36 162 l5 37 30 -22 c16 -12 44 -42 62 -67z m340 50 c48 -10 90 -21 92 -23 3 -3 -219 -143 -245 -155 -4 -1 -3 35 1 80 3 46 7 94 7 107 1 20 4 22 29 16 15 -4 67 -15 116 -25z m549 -45 c9 -27 20 -87 25 -131 7 -76 6 -84 -16 -115 -12 -19 -41 -66 -63 -106 -27 -49 -51 -78 -75 -93 -20 -11 -38 -20 -39 -18 -1 2 -21 39 -45 83 -24 44 -50 91 -60 105 -9 14 -28 46 -43 72 l-27 46 91 56 c50 31 98 56 106 56 8 0 12 4 9 9 -4 5 9 18 27 30 18 11 43 31 57 46 28 30 32 26 53 -40z m-415 -65 c18 -33 37 -62 43 -65 5 -4 9 -10 9 -14 0 -9 -232 -131 -249 -131 -15 0 -96 90 -96 107 0 12 228 161 250 162 6 1 25 -26 43 -59z m502 -37 c2 -2 -3 -18 -13 -35 -25 -44 -14 -46 13 -3 17 28 26 34 43 29 11 -3 58 -14 105 -24 l85 -17 -54 -39 c-51 -38 -206 -134 -216 -134 -2 0 -3 37 -2 83 1 45 -2 99 -6 121 -7 37 -7 38 16 31 13 -4 26 -9 29 -12z m384 -28 c10 -19 26 -42 35 -52 9 -10 40 -51 69 -92 l54 -74 -29 -37 c-15 -21 -63 -84 -105 -140 -43 -56 -78 -109 -78 -116 0 -11 18 -14 71 -14 40 0 110 -10 158 -21 l87 -22 32 -194 c26 -158 30 -197 19 -213 -11 -18 -23 -20 -159 -20 -82 0 -148 3 -148 7 0 43 -56 426 -66 449 l-13 32 -117 7 c-65 4 -149 5 -187 2 l-69 -6 7 52 c4 29 8 53 9 54 1 1 80 -18 176 -42 179 -45 206 -51 180 -36 -12 7 -224 63 -322 85 -28 6 -28 7 -28 91 l0 84 73 42 c39 23 113 71 163 105 l91 64 2 -78 c2 -111 22 -344 33 -367 5 -12 6 6 3 50 -4 39 -10 120 -15 180 -14 163 -13 188 6 181 9 -3 34 -8 57 -11 36 -4 34 -3 -15 11 -62 17 -71 32 -35 57 32 23 40 21 61 -18z m-783 -112 c23 -43 59 -107 81 -142 21 -35 37 -66 35 -68 -3 -2 -76 13 -163 33 -156 37 -160 38 -204 82 -25 24 -40 46 -35 48 8 3 228 115 242 123 0 1 20 -34 44 -76z m-413 -16 c3 -69 1 -76 -14 -70 -12 4 -15 3 -10 -5 4 -7 2 -12 -6 -12 -7 0 -69 -27 -137 -60 -68 -33 -127 -60 -132 -60 -5 0 -9 8 -9 18 0 22 -20 95 -25 90 -2 -2 2 -30 9 -61 l14 -58 -29 -14 c-15 -8 -30 -15 -32 -15 -3 0 18 126 27 160 3 8 5 26 5 40 2 45 12 51 61 36 l45 -13 -54 -27 c-29 -15 -50 -30 -47 -33 3 -3 32 8 64 25 l58 31 74 -19 c41 -11 82 -19 90 -19 24 1 -30 19 -95 33 l-60 12 90 51 c50 29 95 51 100 49 6 -1 11 -37 13 -79z m59 5 l31 -38 -31 -14 c-18 -7 -34 -15 -38 -17 -3 -2 -5 21 -5 52 1 30 4 55 7 55 3 0 19 -17 36 -38z m691 -93 c-7 -5 -33 -21 -58 -36 l-45 -27 19 29 c11 17 36 57 55 90 l36 60 3 -54 c2 -37 -1 -57 -10 -62z m789 82 c65 -15 189 -56 266 -86 22 -9 21 -16 -36 -177 l-41 -118 -88 0 -88 0 -21 43 c-12 23 -36 63 -54 88 -28 39 -35 61 -44 138 -9 71 -9 95 1 111 15 24 9 24 105 1z m-1371 -103 c33 -35 90 -98 128 -140 l67 -77 -43 -22 c-39 -21 -58 -23 -195 -23 l-153 -1 6 35 c3 19 12 67 20 105 8 39 14 89 14 112 0 34 3 41 15 37 8 -4 15 -2 15 3 0 10 36 31 55 32 6 1 37 -27 71 -61z m1252 -50 c-2 -4 -13 10 -24 32 -20 36 -21 40 -6 62 16 23 17 22 25 -31 4 -30 6 -58 5 -63z m-1441 -78 l-23 -135 -112 0 -112 0 -6 35 c-3 19 -10 50 -16 68 -6 19 -6 38 -2 42 16 16 289 139 292 132 1 -4 -8 -68 -21 -142z m773 14 c-14 -156 -13 -154 -58 -149 -20 1 -39 3 -42 4 -13 3 -62 110 -57 124 5 14 12 14 62 1 31 -8 64 -13 73 -11 10 2 -10 9 -43 17 -33 7 -64 17 -70 22 -6 5 -17 -1 -28 -14 -13 -17 -17 -19 -15 -6 3 14 178 139 186 133 2 -2 -2 -56 -8 -121z m646 71 c18 -27 29 -60 35 -110 5 -38 11 -82 14 -97 l4 -28 -149 1 -150 2 37 51 c53 75 175 227 179 224 1 -2 15 -21 30 -43z m-1770 8 c-3 -16 -8 -48 -11 -73 l-7 -45 -101 -53 -101 -52 -38 37 c-21 20 -38 32 -38 26 0 -7 14 -21 30 -33 39 -28 38 -40 -5 -40 -34 0 -35 1 -36 43 l-2 42 -6 -39 -6 -39 -82 -4 c-46 -2 -83 -2 -83 1 0 5 157 89 170 91 8 1 262 136 285 151 30 20 37 17 31 -13z m752 -34 c68 -16 132 -29 143 -29 36 0 19 -16 -63 -63 l-83 -46 -38 42 c-89 98 -122 141 -102 133 11 -4 75 -21 143 -37z m-684 -76 c8 -31 18 -102 14 -109 -3 -6 -108 -15 -108 -9 0 2 5 27 11 54 8 39 17 54 37 65 36 19 40 19 46 -1z m871 7 c4 -6 -10 -36 -29 -67 -32 -52 -40 -58 -73 -60 -27 -1 -44 4 -60 19 -23 22 -33 12 -11 -10 9 -9 1 -12 -37 -12 -58 0 -54 6 40 56 39 21 86 48 105 60 39 25 56 29 65 14z m965 -136 c0 -2 -15 -4 -34 -4 -32 0 -34 2 -40 46 -13 100 -9 104 34 31 22 -38 40 -70 40 -73z m-940 84 c0 -5 9 -23 21 -39 11 -16 17 -29 12 -30 -36 -4 -103 -3 -103 3 0 3 12 24 27 47 24 37 43 45 43 19z m-995 -25 c-4 -21 -9 -41 -11 -44 -2 -3 -38 -6 -80 -7 l-77 -1 79 44 c43 24 83 44 88 44 4 1 5 -16 1 -36z m-285 -80 c0 -12 -33 -36 -106 -75 -90 -49 -106 -54 -111 -40 -4 9 -19 35 -34 58 l-28 41 32 16 c23 11 62 16 140 16 95 1 107 -1 107 -16z m49 14 c-2 -1 -12 -9 -21 -16 -15 -12 -18 -11 -18 3 0 10 8 16 22 16 12 0 19 -1 17 -3z m96 -27 c16 -16 46 -42 67 -57 37 -25 39 -29 32 -62 -4 -20 -10 -81 -13 -135 l-6 -99 -78 -48 c-47 -30 -90 -49 -108 -49 l-29 0 0 218 0 218 38 22 c49 29 63 28 97 -8z m120 -12 c-4 -24 -9 -47 -12 -51 -4 -6 -52 28 -117 85 -6 4 23 8 63 8 l73 0 -7 -42z m155 -30 c14 -89 38 -180 39 -153 1 18 -20 143 -34 203 -5 22 -4 22 106 22 110 0 111 0 106 -22 -3 -13 -11 -52 -17 -88 l-13 -65 -175 -95 c-96 -52 -179 -97 -185 -99 -10 -4 -1 145 11 207 l7 32 80 -65 c71 -58 95 -73 95 -61 0 2 -39 34 -86 71 l-85 68 6 51 c4 28 9 54 12 59 2 4 31 7 63 7 l58 0 12 -72z m366 -8 c-82 -44 -151 -78 -154 -76 -3 4 15 115 24 144 2 9 39 12 141 12 l138 0 -149 -80z m343 50 l22 -30 -30 -44 c-17 -24 -61 -95 -99 -157 -37 -63 -83 -138 -102 -166 l-35 -53 -88 0 -89 0 -61 52 c-34 29 -63 53 -64 53 -5 0 39 190 45 193 4 1 81 43 172 92 163 88 166 89 236 90 67 0 71 -1 93 -30z m236 -36 l37 -66 -12 -82 c-7 -44 -15 -84 -17 -89 -2 -4 -30 28 -62 70 -55 75 -112 145 -150 188 -37 42 -36 43 68 44 l99 1 37 -66z m49 19 c-3 -27 -8 -49 -9 -51 -3 -3 -55 87 -55 94 0 2 16 4 36 4 l35 0 -7 -47z m353 39 l42 -7 -125 -155 c-69 -85 -131 -161 -139 -168 -10 -12 -17 -4 -39 44 -15 32 -40 80 -57 107 -28 46 -30 54 -24 111 4 34 9 64 12 69 5 9 272 8 330 -1z m373 -18 c0 -12 -7 -14 -32 -8 -68 14 -75 23 -20 23 41 1 52 -2 52 -15z m107 -11 c7 -15 12 -28 10 -29 -6 -6 -93 20 -99 30 -14 21 -8 26 35 26 36 0 44 -4 54 -27z m153 16 c0 -6 -8 -25 -17 -42 -10 -18 -18 -33 -19 -34 0 -1 -16 2 -35 7 -29 8 -79 55 -79 75 0 3 34 5 75 5 48 0 75 -4 75 -11z m-550 -234 c11 -93 22 -182 25 -197 l5 -28 -143 1 -142 0 -26 55 -26 55 120 146 c65 81 126 158 135 172 l17 25 7 -30 c4 -16 16 -105 28 -199z m-1852 -111 l-3 -106 -59 98 c-32 55 -76 125 -97 156 l-37 57 96 53 97 53 3 -102 c1 -57 1 -151 0 -209z m1267 166 c55 -72 100 -134 100 -138 0 -4 -6 -37 -14 -74 l-13 -68 -219 0 -220 0 49 73 c26 39 83 132 126 205 43 72 81 132 85 132 3 0 51 -59 106 -130z m1092 84 c1 -5 -2 -16 -7 -24 -9 -13 -13 -11 -30 10 -11 14 -20 28 -20 32 0 10 53 -7 57 -18z m-896 -126 c23 -46 47 -91 55 -102 11 -16 9 -23 -14 -52 -15 -19 -30 -34 -33 -34 -3 0 -23 22 -45 49 l-40 49 15 86 c9 47 17 86 18 86 1 0 21 -37 44 -82z m-866 10 c-4 -18 -15 -71 -26 -118 -11 -47 -22 -95 -25 -108 -9 -41 -27 -18 -45 59 -25 102 -24 106 16 70 56 -49 56 -35 0 16 -27 25 -45 47 -40 49 6 2 33 17 60 34 28 16 54 29 58 29 5 1 6 -14 2 -31z m866 -220 c11 -16 16 -28 10 -28 -6 0 -11 5 -11 12 0 9 -3 9 -12 0 -7 -7 -31 -12 -54 -12 l-42 0 10 48 c16 80 17 81 50 42 16 -19 38 -47 49 -62z m99 10 l18 -38 -38 0 c-57 0 -68 21 -34 66 18 24 30 32 32 23 3 -8 13 -31 22 -51z m-880 -34 c0 -2 -27 -4 -60 -4 l-61 0 7 38 c4 20 9 41 11 45 4 7 103 -69 103 -79z m-463 -1 c-3 -2 -29 -3 -58 -1 l-53 3 55 35 54 35 3 -33 c2 -19 1 -36 -1 -39z m323 -28 c0 -8 -4 -15 -10 -15 -5 0 -10 7 -10 15 0 8 5 15 10 15 6 0 10 -7 10 -15z m330 7 c0 -4 -13 -23 -29 -42 l-30 -35 -43 43 -43 42 73 0 c39 0 72 -4 72 -8z m544 -4 c-5 -7 -26 -35 -47 -63 -31 -39 -39 -44 -34 -25 3 14 9 42 12 63 7 34 10 37 42 37 25 0 32 -3 27 -12z m209 -70 c20 -45 35 -83 33 -85 -3 -3 -72 80 -129 155 -7 9 -1 12 24 12 33 0 35 -3 72 -82z"/> <path d="M1815 1395 c65 -17 101 -17 50 0 -22 8 -53 13 -70 13 -24 0 -19 -3 20 -13z"/> <path d="M1255 1095 c22 -8 49 -14 60 -14 11 0 0 7 -25 15 -25 7 -52 13 -60 13 -8 -1 3 -7 25 -14z"/> <path d="M1081 1556 c2 -2 27 -6 54 -10 34 -4 43 -3 30 3 -19 9 -93 15 -84 7z"/> <path d="M566 153 c66 -127 122 -209 69 -103 -41 82 -126 230 -131 230 -3 0 25 -57 62 -127z"/> </g> </svg> 