<?xml version="1.0" encoding="UTF-8" standalone="no"?>
<!-- Created with Inkscape (http://www.inkscape.org/) -->

<svg
   width="210mm"
   height="297mm"
   viewBox="0 0 210 297"
   version="1.1"
   id="svg5"
   inkscape:version="1.2.2 (732a01da63, 2022-12-09)"
   sodipodi:docname="tegning.svg"
   xmlns:inkscape="http://www.inkscape.org/namespaces/inkscape"
   xmlns:sodipodi="http://sodipodi.sourceforge.net/DTD/sodipodi-0.dtd"
   xmlns="http://www.w3.org/2000/svg"
   xmlns:svg="http://www.w3.org/2000/svg">
  <sodipodi:namedview
     id="namedview7"
     pagecolor="#ffffff"
     bordercolor="#000000"
     borderopacity="0.25"
     inkscape:showpageshadow="2"
     inkscape:pageopacity="0.0"
     inkscape:pagecheckerboard="0"
     inkscape:deskcolor="#d1d1d1"
     inkscape:document-units="mm"
     showgrid="false"
     inkscape:zoom="0.71624579"
     inkscape:cx="324.60924"
     inkscape:cy="337.87284"
     inkscape:window-width="1920"
     inkscape:window-height="991"
     inkscape:window-x="-9"
     inkscape:window-y="-9"
     inkscape:window-maximized="1"
     inkscape:current-layer="layer1" />
  <defs
     id="defs2" />
  <g
     inkscape:label="Lag 1"
     inkscape:groupmode="layer"
     id="layer1">
    <path
       style="fill:#8e0c2c;fill-opacity:1;stroke-width:0.264583"
       id="path7799"
       d="m 48.13741,70.015692 c 2.565696,-4.405387 4.242522,-9.466998 7.697086,-13.21616 1.302563,-1.413645 3.808254,-1.860518 5.630183,-1.247629 1.388546,0.467098 2.85216,2.587143 2.114539,3.85291 -1.321586,2.26786 -4.118859,4.275272 -6.736281,4.07806 -1.907892,-0.143754 -4.758513,-3.838927 -3.116125,-4.820399 4.137155,-2.472322 9.556983,-1.256112 14.335474,-1.884167 6.131629,0.480502 13.845051,-2.696937 18.394889,1.441509 3.241564,2.948463 -3.190592,8.52561 -2.655506,12.874728 0.336827,2.737717 4.896114,3.803999 5.0464,6.558261 0.20202,3.702415 -2.806837,6.864956 -4.124867,10.330717 -3.865981,10.165614 -2.861797,7.940336 -5.579687,20.065828 2.759451,3.99913 5.093525,8.32799 8.278355,11.99739 7.756289,8.9364 15.01174,8.7814 -4.08237,-3.50495 -13.605944,-8.75492 -7.065619,-1.64661 -4.88509,1.22949 2.523506,2.86093 7.156064,4.79052 7.570521,8.58277 0.324326,2.96759 -5.406041,-2.93226 -7.212703,-5.30876 -2.36205,-3.10706 -4.009158,-6.83309 -4.905568,-10.63172 -0.394309,-1.67092 -0.174538,-6.01244 1.215583,-5.00495 1.587706,1.15069 -0.276278,3.94057 -0.0047,5.88252 0.471929,3.37498 1.481777,6.6526 2.222664,9.9789 36.409403,56.63048 116.496993,5.13982 80.087593,-51.490663 v 0 c 0.34157,2.937383 0.53448,5.895885 1.02469,8.812146 0.18191,1.082177 1.7342,3.942868 0.98465,3.141382 -5.74089,-6.138696 -3.47459,-11.586221 -8.35042,-19.289268 -1.77112,-2.798085 -4.91288,-8.102079 -7.68686,-6.293448 -2.78684,1.817013 1.68857,6.435892 2.53286,9.653839 3.18647,0.986456 12.41153,4.370776 -2.85035,-8.24325 -4.59614,-3.798737 -10.87063,-5.012767 -15.84935,-8.294126 -1.21327,-0.79964 -2.73396,-5.080955 -2.32755,-3.685863 0.68926,2.366065 1.73694,4.680664 3.19593,6.666788 2.00192,2.725206 4.70381,4.859195 7.05572,7.288792 -2.2555,2.525895 -3.71442,6.110645 -6.76651,7.577688 -4.97183,2.389798 -16.43343,1.50578 -21.2176,-1.58028 -2.53947,-1.638101 -2.9583,-5.670261 -5.60806,-7.12321 -15.504794,-8.50179 -15.94106,8.388585 -5.608425,-18.472094 2.273157,-4.785223 7.255125,-9.07591 6.819485,-14.355664 C 101.95801,15.669202 89.510265,10.039977 81.364556,10.495237 77.9716,10.684868 75.408365,15.561748 72.105584,14.761905 64.391214,12.893706 63.110916,-7.6266198 62.672589,-9.9277931 6.1440099,-20.205717 -8.391169,59.737767 48.13741,70.015692 Z" />
    <path
       style="fill:#0c2f8e;fill-opacity:1;stroke-width:0.264583"
       id="path8046"
       d="m 154.41045,145.94963 c -3.53078,9.43393 -14.57671,39.26964 -16.43844,41.4798 -2.85715,3.39188 -8.90458,1.00554 -13.2985,0.40418 -3.55693,-0.48681 -7.83633,-0.86456 -10.14623,-3.61285 -25.924723,-30.84512 8.16762,-10.53373 -22.107585,-25.49809 -6.06924,0.81251 -12.443235,0.37197 -18.207722,2.43753 -4.053261,1.45238 -14.291829,9.41958 -10.310146,7.78112 11.844351,-4.87392 21.826516,-14.13637 34.158721,-17.59475 2.696632,-0.75623 -0.258201,5.66109 -1.113927,8.32782 -0.849765,2.64814 -1.57521,5.87126 -3.921554,7.36439 -1.287912,0.81959 -2.609201,-1.58549 -3.913804,-2.37824 -1.286248,-0.89901 -2.911445,-1.44592 -3.858746,-2.69703 -2.197473,-2.90223 -4.146376,-9.38997 -4.185838,-12.98735 -0.02543,-2.31841 1.185714,-9.18045 1.134705,-6.86246 -0.716587,32.56439 24.457116,80.35344 -3.132873,97.6666 -26.89171,16.87499 -0.488479,-63.49392 -0.732719,-95.24088 -0.08903,3.85167 0.403903,4.31919 -0.767334,1.88817 -65.9311,0.13432 -65.741136,93.37497 0.189963,93.24065 v 0 c 2.085933,-1.27616 0.985928,-1.21298 3.276307,0.43804 0.142835,-31.53939 31.625412,-99.25569 0.428506,-94.61817 -31.394072,4.66683 -3.02608,63.41001 -3.915913,95.13658 -0.0571,2.03586 0.79352,-4.00429 1.414335,-5.94402 0.506392,-1.58222 1.174017,-3.11815 1.955274,-4.58426 3.909716,-7.33701 1.819275,-5.75391 8.652997,-6.65082 1.639871,-1.85624 2.525873,-6.20493 4.919614,-5.5687 3.711927,0.98659 5.121008,5.74153 7.390009,8.84046 2.20976,3.01804 2.40256,10.43163 6.01779,9.47156 13.54576,-3.59724 24.06474,-14.41649 36.55364,-20.77692 7.67028,-3.90636 -34.12121,25.69292 -24.79767,7.20492 -2.65241,-3.46862 -7.22074,-6.10188 -7.95721,-10.40584 -2.54,-14.84396 0.72737,-20.3162 12.97741,-22.633 4.35677,-0.82398 10.43516,-3.69108 13.2985,-0.30558 7.00042,8.27702 8.018,20.14378 12.0056,30.22416 1.49189,3.77138 2.95522,7.55399 4.43284,11.33099 60.01781,0 60.01781,-84.87801 0,-84.87801 z" />
    <path
       style="fill:#448e0c;fill-opacity:0.8063063;stroke-width:0.264583"
       id="path8097"
       d="m 45.504425,125.93992 c 2.299023,-4.68208 2.532179,-11.25226 9.358696,-9.591 6.044816,1.47104 1.272241,6.3963 0.478422,9.3241 -0.114604,0.42269 -0.02692,1.22455 0.410398,1.24811 2.790727,0.15035 5.565542,-0.51749 8.34831,-0.77624 2.198968,-0.7001 9.857425,-4.77477 13.041913,-1.29786 1.432201,1.56371 1.105318,4.10752 1.92508,6.06312 0.794993,1.89651 1.957874,3.61721 2.899193,5.44551 0.944305,1.8341 0.898972,4.64466 2.757146,5.54067 2.602314,1.25484 5.778079,-0.0213 8.66712,-0.0319 1.679014,-1.98968 2.805197,-4.6286 5.037042,-5.96902 1.950605,-1.17152 8.598535,-0.69521 10.733235,0.37929 1.50985,0.75999 2.13116,3.53525 3.81082,3.34555 2.55493,-0.28853 3.98465,-3.31788 6.27583,-4.48468 2.1867,-1.11358 4.66728,-1.5177 7.00091,-2.27656 1.46761,1.38523 3.14284,2.57925 4.40283,4.15569 3.50503,4.3853 2.2153,6.00755 4.78612,11.40366 0.72574,1.52331 1.83718,2.84794 2.96591,4.10218 3.42848,3.80969 5.30473,2.52302 2.39308,3.81034 2.7612,2.55645 3.83716,3.9764 7.9159,5.27652 2.68448,0.85568 5.73758,2.67305 8.31299,1.53031 1.81557,-0.80559 -4.09335,-1.26187 -5.19872,-2.91215 -0.80278,-1.19851 -0.10029,-2.94533 0.35951,-4.31261 0.14368,-0.42727 0.46804,0.77057 0.70206,1.15585 56.35741,9.39838 69.64873,-70.303032 13.29132,-79.70141 v 0 c -1.66237,0.833329 -3.33112,3.34591 -4.98711,2.499984 -2.60128,-1.328801 -2.30467,-5.68934 -4.65412,-7.424978 -2.39939,-1.772531 -7.82414,0.488133 -8.62559,-2.3853 -0.69239,-2.482424 4.73081,-3.983575 7.11923,-3.015457 4.62736,1.875639 3.60982,7.720015 3.38412,11.179789 -1.30938,-1.099632 -2.27294,-3.727789 -3.92815,-3.298894 -1.43085,0.370758 0.10532,3.023973 -0.38806,4.417301 -2.70877,7.649564 -1.70426,2.381769 -7.01727,5.209905 -12.61167,6.713231 -1.63283,5.031925 -13.39729,5.607902 -16.82286,-8.643387 9.66383,6.246878 -9.56815,-11.043745 -1.61352,-1.450645 -9.468,3.2831 -9.66805,3.303825 -1.70709,0.176861 -3.46301,-0.659847 -4.88878,-1.615162 -1.92062,-1.286896 -3.2526,-3.286371 -4.8789,-4.929555 0.64624,-1.930434 2.18362,-3.770355 1.93872,-5.791306 -0.1447,-1.194176 -1.45483,1.925495 -2.30391,2.777588 -1.05004,1.053772 -2.01148,2.324431 -3.37433,2.920804 -1.696711,0.742466 -10.720781,2.264812 -12.567835,1.142915 -1.794417,-1.089921 -1.981676,-3.701944 -2.972514,-5.552916 -1.897869,-2.870634 -3.248223,-5.55259 -7.184432,-6.698641 -2.609318,-0.759722 -5.47986,-0.373848 -8.152109,0.120928 -2.298538,0.425582 -4.177519,2.59629 -6.515126,2.594761 -8.35773,-0.0055 -9.770838,-8.706083 -12.833554,-14.413945 -51.59524293,-3.685376 -56.8071496,69.281317 -5.211905,72.966697 z" />
    <path
       style="fill:#3d0c8e;fill-opacity:0.2117117;stroke-width:0.264583"
       id="path10353"
       d="m 124.52058,10.218827 c 1.48209,3.796283 4.11916,7.326664 4.44626,11.388849 0.50844,6.314226 -6.75504,6.766484 -10.37811,4.931278 -3.46446,-1.75487 -5.59953,-5.41801 -8.73439,-7.710337 -1.42183,-1.039698 -3.05307,-2.34347 -4.80799,-2.192362 -1.32133,0.113775 -1.85369,1.897184 -2.78054,2.845776 -10.985101,11.499145 -10.78995,8.860871 -14.299616,30.18348 -0.606575,3.685188 2.30532,-7.291051 4.662101,-10.188316 2.854691,-3.509361 6.737118,-6.105913 10.559995,-8.524692 0.46951,-0.297063 1.22223,0.454941 1.3341,0.999151 0.13747,0.668698 -0.49053,1.274202 -0.73579,1.911303 -16.046455,-0.6916 -3.68588,-2.90643 -11.14098,5.895266 -0.638331,0.753631 -1.9916,0.305181 -2.96069,0.114681 -0.457454,-0.08993 -1.517314,-0.791509 -1.065413,-0.906122 7.975303,-2.022729 6.312664,-1.481328 7.82211,4.665171 0.177109,0.641784 0.354218,1.283568 0.531328,1.925351 -1.113753,1.32328 -3.628837,2.264313 -3.341259,3.969835 0.5359,3.178202 4.843169,4.862798 5.366829,8.04304 0.216977,1.317723 -2.919126,0.08587 -3.874701,1.018796 -3.462107,3.38006 3.439737,3.661527 -2.885784,2.58444 -1.253638,-0.573995 -2.837267,-0.698291 -3.760914,-1.721988 -2.054879,-2.27747 -3.23292,-5.214001 -4.849379,-7.821004 15.992623,-3.949739 35.210713,-22.259028 47.977873,-11.849221 19.43984,15.850417 44.64004,55.903669 24.67516,71.087428 -25.12669,19.10945 -65.280058,-3.71657 -92.705578,-19.348671 -8.648819,-4.929688 5.708337,-19.074339 8.562509,-28.61151 1.42045,-0.898694 2.606852,-2.992665 4.26135,-2.696083 1.872247,0.335616 2.537362,2.838966 3.905766,4.160107 0.390784,0.377286 0.843036,0.716984 1.349409,0.913562 1.027742,0.398978 2.46067,0.02964 3.196045,0.851019 0.403365,0.45054 -0.918567,0.786831 -1.383641,1.17335 -1.657884,1.37786 -3.323431,2.746473 -4.985149,4.119708 -6.246538,10.265804 -1.322515,4.614058 -8.674413,9.768223 -0.885224,0.620602 -2.372275,1.035791 -2.460257,2.113301 -0.197435,2.417996 1.897301,4.655572 1.710066,7.074379 -0.182052,2.351813 -2.0261,4.274159 -2.76202,6.515272 -0.677717,2.063869 -0.97518,4.233723 -1.462773,6.350593 -0.977508,1.89295 -1.702617,3.93928 -2.932528,5.67886 -1.437875,2.03371 -3.381155,3.65955 -5.005088,5.54802 -1.247947,1.45124 -3.113723,2.61817 -3.607379,4.46743 -0.457917,1.71537 0.868201,3.45887 1.019227,5.22787 0.671457,7.86489 0.696402,5.61921 -4.654632,11.20947 -1.059748,0.59883 -9.884526,5.07623 -9.459018,7.07666 1.024779,4.81776 7.356359,7.46581 8.147664,12.32737 0.366329,2.25062 -3.245636,3.61644 -5.473242,4.10352 -9.71569,2.1244 -15.720539,-3.60522 -23.756856,-7.98679 8.47815,-8.59131 13.531986,-27.77915 25.434454,-25.77393 15.091736,2.54252 130.388344,98.55535 9.4302,0.16706 -67.594453,1.25362 -65.821573,96.84661 1.77288,95.59299 v 0 c -122.60416,-99.41943 -1.197112,0.68736 10.368029,2.64709 12.331155,2.08954 16.884345,-18.4557 25.32652,-27.68355 -3.505817,-3.41756 -14.636711,-13.2544 -16.383185,-18.68499 -0.850252,-2.64382 -1.201058,-6.9272 1.247523,-8.23761 4.585658,-2.45412 10.670627,0.93518 15.584133,-0.77023 3.210888,-1.11445 -7.71226,-9.74327 -0.211709,-10.19418 0.630571,-2.34813 2.334953,-9.67985 4.017748,-11.23 2.293628,-2.11283 5.958395,-2.16077 8.422995,-4.0714 1.14507,-0.88769 1.4619,-2.53128 1.88252,-3.91773 1.73121,-5.70632 -2.043,-0.90796 2.85889,-5.70506 0.25198,-1.44129 -0.21249,-3.22708 0.75596,-4.32386 0.95238,-1.07859 2.74099,-0.88605 4.14029,-1.22122 1.24382,-0.29792 8.82512,-1.0838 10.21133,-3.40737 0.56386,-0.94514 -0.23476,-2.24518 -0.77721,-3.15549 6.10759,-3.64148 -11.57051,6.519 9.23209,0.20364 2.6957,-0.81837 4.40172,-3.52063 6.51595,-5.3825 1.38688,-1.22135 2.20609,-3.34001 3.97939,-3.86013 2.03586,-0.59714 4.24424,1.33094 6.30888,0.8425 2.74319,-0.64896 4.93588,-2.72436 7.40381,-4.08654 5.08036,-18.100294 54.34616,-154.778542 -83.624916,-48.990141 -19.97924,15.318948 2.862006,56.135851 22.27186,72.170121 12.866906,10.62922 32.874846,-7.12874 48.047886,-14.07974 3.94386,-1.80674 -5.30933,-10.4826 -0.70211,-12.99506 2.11635,-16.905637 -2.03166,0.47988 6.6414,-10.73608 4.06555,-5.257544 -4.85285,-6.940863 7.037,-6.552814 1.78433,0.05824 3.47921,2.939455 4.9796,1.971955 1.45799,-0.940154 0.0221,-3.469571 0.0332,-5.204356 9.58277,2.430245 2.05396,2.361528 9.0569,-5.317411 0.89651,-0.983057 2.69703,-0.59745 3.71892,-1.449432 0.34662,-0.288989 -0.73031,-0.740778 -1.17611,-0.670595 -5.17219,0.814279 -4.61986,0.182695 -5.44225,2.854267 -0.59148,-1.560639 -2.63141,-3.249774 -1.77444,-4.681916 3.89867,-6.51529 22.13433,1.38117 15.64633,-16.553865 1.98594,-3.621553 4.7352,-15.670797 4.4934,-11.547551 -0.41061,7.00188 -2.97669,13.724141 -5.01462,20.435456 -0.92791,3.055765 -2.56944,5.847458 -3.85416,8.771188 -1.04731,0.05698 -2.21157,0.655262 -3.14191,0.170945 -4.26835,-2.22204 -11.59733,-16.215217 -11.71248,-16.544763 -0.69459,-1.987974 0.71795,-4.153038 1.2112,-6.200281 0.52174,-2.165477 -0.34585,-5.954688 1.83103,-6.426567 4.59504,-0.996059 9.18191,2.029428 13.77286,3.044142 C 207.1442,11.645806 152.73449,-28.25465 124.5206,10.218827 Z" />
    <path
       style="fill:#b7b711;fill-opacity:0.77027029;stroke-width:0.264583"
       id="path11727"
       d="m 25.662496,325.76939 c 6.280895,-2.17556 5.111432,-15.70101 11.861064,-18.66384 9.595135,-4.21193 8.006254,4.96808 17.314444,-1.16586 16.924864,-11.15322 -1.786348,-6.16596 8.925809,-8.54483 0.748313,0.62873 3.134508,1.48127 2.244939,1.88614 -1.385184,0.63045 -3.229369,-0.004 -4.482481,-0.86775 -0.60008,-0.4136 -0.522123,-1.73684 0.05198,-2.18578 1.750063,-1.36856 5.135161,-0.64876 6.119569,-2.64038 1.0135,-2.05047 -1.247227,-4.42198 -1.505513,-6.69462 -0.198385,-1.74556 0.09728,-3.51227 0.145918,-5.26839 1.25163,0.40855 4.420078,2.36189 3.754895,1.22566 -1.157073,-1.97646 -4.569643,-2.05113 -5.470771,-4.15663 -0.472924,-1.10501 2.641012,-0.94134 3.599378,-0.21593 1.717485,1.29998 1.415809,4.63389 3.386423,5.50363 10.274859,4.53482 11.306162,-4.11803 9.368629,3.69165 16.033983,-23.92204 -1.831536,4.9599 -6.256885,-0.11777 -3.24829,-3.72708 6.782025,-7.19611 10.23439,-10.73499 0.209907,-0.21519 1.011706,-0.38544 0.740389,-0.51485 -5.906725,-2.81723 -3.095104,2.60207 -4.75901,-6.78635 9.078526,5.97201 4.014216,-3.76129 2.822572,-3.0534 -0.895062,0.53171 0.570749,2.59778 1.608812,2.677 2.354906,0.17971 4.594114,-2.91505 6.786322,-2.03634 1.498187,0.6005 -0.909889,3.66895 0.203105,4.83791 0.807992,0.8486 0.859774,-2.18009 1.289661,-3.27012 -0.208254,0.91017 -0.41651,1.82033 -0.624764,2.7305 45.340679,-52.97318 -29.574725,-117.09459 -74.915409,-64.1214 v 0 c -0.240138,1.25633 -0.480276,2.51266 -0.720414,3.769 7.932669,-2.07148 -1.321121,-0.70574 2.509215,4.02124 0.976296,1.20483 4.043278,-1.39329 4.65209,0.0329 3.135438,7.34521 -5.522392,4.23821 -6.78213,7.18571 -0.504526,1.18048 1.582769,2.02166 2.374153,3.0325 -5.756328,-0.82428 1.960917,-0.0122 -8.966385,1.31018 -0.947267,0.11464 -3.1492779,0.40345 -2.8199225,-0.49209 1.621867,-4.40994 12.1080595,-12.11042 7.4108525,-11.99089 -2.390643,0.0608 -20.8466242,23.75203 -2.076794,6.86708 -1.678454,0.21612 -6.4963577,-0.2057 -5.0353614,0.64836 9.5444094,5.57935 10.9528444,-4.99109 9.8278404,10.83016 -0.10487,1.47481 -0.652043,3.25401 -1.933112,3.99219 -11.0064257,6.3422 -10.2239925,-2.61493 -8.6941441,8.56618 -1.7854396,-0.30221 -3.5790709,-0.55948 -5.3563185,-0.90663 -0.6252858,-0.12214 -1.68860634,0.11769 -1.8447571,-0.49998 -0.14970643,-0.59218 2.0242193,-1.28131 1.4280906,-1.14819 -0.8611803,0.1923 -1.56571812,0.82587 -2.28343162,1.33919 -6.21199138,4.44291 -4.69465018,2.18744 -6.30556848,8.21724 -0.2785157,0.13074 -1.1112172,0.52885 -0.8355475,0.39221 1.9393966,-0.96126 3.6896854,-3.20917 5.8268888,-2.86617 8.1756161,1.31211 8.7214843,7.68282 6.3738817,4.06516 -0.5475473,-0.84377 -1.5756972,-1.57801 -1.5589062,-2.58373 0.044618,-2.67251 1.1551692,-5.21945 1.7327538,-7.82918 -58.3605314,14.59013 -37.7269684,97.12439 20.6335636,82.53426 z" />
    <path
       style="fill:#0a536e;fill-opacity:0.6891892;stroke-width:0.264583"
       id="path16139"
       d="m 192.76658,262.387 c -4.17335,-2.12656 -8.62409,-3.77956 -12.52005,-6.37967 -4.60243,-3.0716 -5.35871,-5.42035 -1.86648,-9.70531 2.19559,-2.69398 10.67239,-0.29488 11.16361,0.42485 1.82958,2.68067 -0.30519,6.48385 -0.45778,9.72577 -0.47733,-1.74739 -0.95466,-3.49478 -1.43199,-5.24217 1.24982,-2.40394 4.13709,-4.53026 3.74947,-7.21181 -0.26011,-1.79944 -3.78212,-0.71391 -5.07929,-1.98789 -1.26951,-1.2468 -1.43987,-3.26121 -1.98879,-4.9538 -0.0571,-0.17615 0.38591,-0.43749 0.21626,-0.51174 -2.07706,-0.90895 -4.28871,-1.47256 -6.43306,-2.20884 3.40754,-3.13119 5.31467,-6.79915 11.0737,-2.09035 0.92893,0.75953 -1.1401,2.14951 -1.37775,3.32566 -0.25463,1.26011 1.17446,4.16514 -0.0734,3.85603 -13.29615,-3.29361 -16.57895,-7.06974 -25.27619,-14.30967 7.19569,-9.89377 -0.58127,-1.37962 12.34787,-7.85132 0.59225,-0.29644 1.01944,-1.44195 0.55008,-1.90922 -3.01413,-3.00075 -8.12436,-3.96419 -10.18623,-7.68416 -1.42701,-2.57457 7.25125,-13.7212 7.51439,-14.10227 -4.62124,-17.08595 0.93539,8.86849 2.80638,-10.10078 0.75083,-7.61242 -6.26124,-6.64311 -6.88131,-13.53369 -0.3489,-3.87725 7.0121,-3.26032 0.29108,-3.21733 -3.95918,0.46061 -14.62892,2.17783 -17.88025,0.10675 -1.58835,-1.01176 -0.77877,-4.12387 0.33903,-5.63947 5.99749,-8.13189 13.85448,-5.55197 13.51557,-18.08256 -0.10459,-3.86669 -3.09821,-7.08872 -4.64732,-10.63309 4.29907,0.64925 4.1246,0.39157 -0.58217,0.72982 -41.55665,-48.368191 -109.959599,10.40178 -68.402953,58.76997 v 0 c 2.005962,-2.00967 0.774832,-1.1305 0.656002,4.4908 -1.030819,-3.14244 -3.5053,-6.146 -3.092458,-9.42733 0.956776,-7.60456 8.326356,-9.52345 14.396549,-8.17713 2.1766,0.48275 5.15917,1.77221 5.3665,3.99204 0.12872,1.37825 -7.36303,16.57647 -8.15118,18.21488 -2.313101,6.68635 -4.911007,7.79942 4.1894,6.27262 1.31571,-0.22074 -3.52827,0.8572 -3.98256,-0.39717 -1.399234,-3.86353 5.17304,-4.63183 6.45723,-3.30671 0.64745,0.66807 -0.73722,1.70837 -1.10583,2.56256 2.37149,-0.0784 4.8127,-0.81143 7.11447,-0.23523 2.03263,0.50882 6.63657,1.71769 5.32029,3.348 -2.49258,3.08725 -8.66364,0.93313 -11.2241,3.96431 -1.39057,1.6462 1.58623,4.12627 3.0693,5.68964 10.47134,11.03832 4.63174,-1.44801 9.09049,10.72304 -13.28104,16.75428 6.63703,-5.21488 -19.747667,8.10505 -3.866386,1.95189 -0.317858,10.11308 1.172687,11.6934 1.84928,1.96068 4.74986,2.65558 6.7241,4.49038 0.63772,0.59268 0.5248,1.66025 0.7872,2.49038 -7.03718,5.52632 -1.15207,-0.79807 -1.55937,6.23017 -0.0392,0.67628 -1.18182,-0.75327 -1.85483,-0.83048 -0.26457,-0.0303 0.35367,0.92048 0.43826,0.66797 0.0893,-0.26669 0.46581,-3.88162 0.56154,-4.77909 -1.87324,22.58595 -4.55016,5.88833 8.7351,17.12707 1.54379,1.30598 0.25189,4.79743 2.05812,5.70648 2.67479,1.34618 6.01445,-0.54993 8.98209,-0.15012 0.96174,0.12959 3.24183,1.23973 2.37729,1.68055 -3.79276,1.93381 -8.20988,2.25756 -12.31483,3.38635 16.34558,54.48525 93.39935,31.36911 77.05378,-23.11614 z" />
  </g>
</svg>
